<svg xmlns="http://www.w3.org/2000/svg" viewBox="0 0 900 640" role="img" aria-label="Open book final sketch">
  <rect width="900" height="640" rx="34" fill="#fffdf7"/>
  <g stroke="#211b16" fill="none" stroke-linecap="round" stroke-linejoin="round">
    
<path d="M450 130v330" stroke-width="9"/>
<path d="M450 160c-96-64-204-72-320-34v300c112-38 220-26 320 34z" stroke-width="9"/>
<path d="M450 160c96-64 204-72 320-34v300c-112-38-220-26-320 34z" stroke-width="9"/>
<path d="M190 204c78-20 152-14 220 20M190 278c78-20 152-14 220 20" stroke-width="5" opacity=".65"/>
<path d="M490 224c76-34 152-42 230-22M490 298c76-34 152-42 230-22" stroke-width="5" opacity=".65"/>
<path d="M166 470c96 18 192 16 284-10M450 460c96-22 190-22 282-4" stroke-width="4" opacity=".25"/>

  </g>
</svg>